<?xml version="1.0"?>
<COLLADA xmlns="http://www.collada.org/2005/11/COLLADASchema" version="1.4.1">
    <asset>
        <contributor>
            <authoring_tool>J3D Ripoff Exporter</authoring_tool>
        </contributor>
        <created>2023-02-03T20:17:44.775Z</created>
        <modified>2023-02-03T20:17:44.775Z</modified>
		<unit meter="0.01" name="centimeter" ></unit>
        <up_axis>Y_UP</up_axis>
    </asset>
    <library_images>
        <image id="tex0">
            <init_from>Nova.png</init_from>
        </image>
        <image id="tex1">
            <init_from>Nova.png</init_from>
        </image>
        <image id="tex2">
            <init_from>Glow.png</init_from>
        </image>
    </library_images>
    <library_effects>
        <effect id="effect0">
            <profile_COMMON>
                <newparam sid="surface0">
                    <surface type="2D">
                        <init_from>tex2</init_from>
                    </surface>
                </newparam>
                <newparam sid="sampler0">
                    <sampler2D>
                        <source>surface0</source>
                    </sampler2D>
                </newparam>
                <technique sid="COMMON">
                    <blinn>
                        <diffuse>
                            <texture texture="sampler0" texcoord="UVSET0"></texture>
                        </diffuse>
                    </blinn>
                </technique>
            </profile_COMMON>
        </effect>
        <effect id="effect1">
            <profile_COMMON>
                <newparam sid="surface1">
                    <surface type="2D">
                        <init_from>tex0</init_from>
                    </surface>
                </newparam>
                <newparam sid="sampler1">
                    <sampler2D>
                        <source>surface1</source>
                    </sampler2D>
                </newparam>
                <technique sid="COMMON">
                    <blinn>
                        <diffuse>
                            <texture texture="sampler1" texcoord="UVSET0"></texture>
                        </diffuse>
                    </blinn>
                </technique>
            </profile_COMMON>
        </effect>
    </library_effects>
    <library_materials>
        <material id="mat0" name="GlowMat">
            <instance_effect url="#effect0"></instance_effect>
        </material>
        <material id="mat1" name="NovaMat_v_x">
            <instance_effect url="#effect1"></instance_effect>
        </material>
    </library_materials>
    <library_geometries>
        <geometry id="mesh0">
            <mesh>
                <source id="points0">
                    <float_array id="pointarray0" count="147">0 0 0 -750.5 0 0 -724.5 194 0 -1449.5 388 0 -1299.5 750.5 0 -649.5 375 0 -1061 1061 0 -530.5 530.5 0 -750.5 1299.5 0 -375 649.5 0 -388 1449.5 0 -194 724.5 0 0 1501 0 0 750.5 0 388 1449.5 0 194 724.5 0 750.5 1299.5 0 375 649.5 0 1061 1061 0 530.5 530.5 0 1299.5 750.5 0 649.5 375 0 1449.5 388 0 724.5 194 0 1501 0 0 750.5 0 0 1449.5 -388 0 724.5 -194 0 1299.5 -750.5 0 649.5 -375 0 1061 -1061 0 530.5 -530.5 0 750.5 -1299.5 0 375 -649.5 0 388 -1449.5 0 194 -724.5 0 0 -1501 0 0 -750.5 0 -388 -1449.5 0 -194 -724.5 0 -750.5 -1299.5 0 -375 -649.5 0 -1061 -1061 0 -530.5 -530.5 0 -1299.5 -750.5 0 -649.5 -375 0 -1449.5 -388 0 -724.5 -194 0 -1501 0 0</float_array>
                    <technique_common>
                        <accessor count="49" source="#pointarray0" stride="3">
                            <param name="X" type="float"/>
                            <param name="Y" type="float"/>
                            <param name="Z" type="float"/>
                        </accessor>
                    </technique_common>
                </source>
                <source id="uvs0">
                    <float_array id="uvarray0" count="148">0.93603515625 0.9569091796875 0.958251953125 0.458984375 0.9166259765625 0.458984375 0.9166259765625 -0.020751953125 0.875 -0.020751953125 0.8974609375 0.9569091796875 0.875 0.458984375 0.833251953125 -0.020751953125 0.85546875 0.9569091796875 0.833251953125 0.458984375 0.7916259765625 -0.020751953125 0.812744140625 0.9569091796875 0.7916259765625 0.458984375 0.75 -0.020751953125 0.771484375 0.9569091796875 0.75 0.458984375 0.708251953125 -0.020751953125 0.7294921875 0.9569091796875 0.708251953125 0.458984375 0.6666259765625 -0.020751953125 0.688232421875 0.9569091796875 0.6666259765625 0.458984375 0.625 -0.020751953125 0.646240234375 0.9569091796875 0.625 0.458984375 0.583251953125 -0.020751953125 0.603515625 0.9569091796875 0.583251953125 0.458984375 0.5416259765625 -0.020751953125 0.5628662109375 0.9569091796875 0.5416259765625 0.458984375 0.5 -0.020751953125 0.520263671875 0.9569091796875 0.5 0.458984375 0.458251953125 -0.020751953125 0.4803466796875 0.9569091796875 0.458251953125 0.458984375 0.4166259765625 -0.020751953125 0.437744140625 0.9569091796875 0.4166259765625 0.458984375 0.375 -0.020751953125 0.397705078125 0.9569091796875 0.375 0.458984375 0.333251953125 -0.020751953125 0.3543701171875 0.9569091796875 0.333251953125 0.458984375 0.2916259765625 -0.020751953125 0.3131103515625 0.9569091796875 0.2916259765625 0.458984375 0.25 -0.020751953125 0.271728515625 0.9569091796875 0.25 0.458984375 0.208251953125 -0.020751953125 0.23046875 0.9569091796875 0.208251953125 0.458984375 0.1666259765625 -0.020751953125 0.1898193359375 0.9569091796875 0.1666259765625 0.458984375 0.125 -0.020751953125 0.146484375 0.9569091796875 0.125 0.458984375 0.083251953125 -0.020751953125 0.105224609375 0.9569091796875 0.083251953125 0.458984375 0.0416259765625 -0.020751953125 0.063232421875 0.9569091796875 0.0416259765625 0.458984375 0 -0.020751953125 0.977294921875 0.9569091796875 1 0.458984375 0.958251953125 -0.020751953125 0.0205078125 0.9569091796875 0 0.458984375 1 -0.020751953125</float_array>
                    <technique_common>
                        <accessor count="1" source="#uvarray0" stride="2">
                            <param name="S" type="float"/>
                            <param name="T" type="float"/>
                        </accessor>
                    </technique_common>
                </source>
                <source id="colors0">
                    <float_array id="colorarray0" count="8">1 1 1 1 1 1 1 0</float_array>
                    <technique_common>
                        <accessor count="2" source="#colorarray0" stride="4">
                            <param name="R" type="float"/>
                            <param name="G" type="float"/>
                            <param name="B" type="float"/>
                            <param name="A" type="float"/>
                        </accessor>
                    </technique_common>
                </source>
                <vertices id="vertices0">
                    <input semantic="POSITION" source="#points0"/>
                </vertices>
                <polylist count="72" material="Material1">
                    <input offset="0" semantic="VERTEX" source="#vertices0"/>
                    <input offset="1" semantic="TEXCOORD" source="#uvs0" set="0"/>
                    <input offset="2" semantic="COLOR" source="#colors0" set="0"/>
                    <vcount>3 3 3 3 3 3 3 3 3 3 3 3 3 3 3 3 3 3 3 3 3 3 3 3 3 3 3 3 3 3 3 3 3 3 3 3 3 3 3 3 3 3 3 3 3 3 3 3 3 3 3 3 3 3 3 3 3 3 3 3 3 3 3 3 3 3 3 3 3 3 3 3</vcount>
                    <p>2 2 0 1 1 0 0 0 0 3 3 1 1 1 0 2 2 0 4 4 1 3 3 1 2 2 0 5 6 0 2 2 0 0 5 0 4 4 1 2 2 0 5 6 0 6 7 1 4 4 1 5 6 0 7 9 0 5 6 0 0 8 0 6 7 1 5 6 0 7 9 0 8 10 1 6 7 1 7 9 0 9 12 0 7 9 0 0 11 0 8 10 1 7 9 0 9 12 0 10 13 1 8 10 1 9 12 0 11 15 0 9 12 0 0 14 0 10 13 1 9 12 0 11 15 0 12 16 1 10 13 1 11 15 0 13 18 0 11 15 0 0 17 0 12 16 1 11 15 0 13 18 0 14 19 1 12 16 1 13 18 0 15 21 0 13 18 0 0 20 0 14 19 1 13 18 0 15 21 0 16 22 1 14 19 1 15 21 0 17 24 0 15 21 0 0 23 0 16 22 1 15 21 0 17 24 0 18 25 1 16 22 1 17 24 0 19 27 0 17 24 0 0 26 0 18 25 1 17 24 0 19 27 0 20 28 1 18 25 1 19 27 0 21 30 0 19 27 0 0 29 0 20 28 1 19 27 0 21 30 0 22 31 1 20 28 1 21 30 0 23 33 0 21 30 0 0 32 0 22 31 1 21 30 0 23 33 0 24 34 1 22 31 1 23 33 0 25 36 0 23 33 0 0 35 0 24 34 1 23 33 0 25 36 0 26 37 1 24 34 1 25 36 0 27 39 0 25 36 0 0 38 0 26 37 1 25 36 0 27 39 0 28 40 1 26 37 1 27 39 0 29 42 0 27 39 0 0 41 0 28 40 1 27 39 0 29 42 0 30 43 1 28 40 1 29 42 0 31 45 0 29 42 0 0 44 0 30 43 1 29 42 0 31 45 0 32 46 1 30 43 1 31 45 0 33 48 0 31 45 0 0 47 0 32 46 1 31 45 0 33 48 0 34 49 1 32 46 1 33 48 0 35 51 0 33 48 0 0 50 0 34 49 1 33 48 0 35 51 0 36 52 1 34 49 1 35 51 0 37 54 0 35 51 0 0 53 0 36 52 1 35 51 0 37 54 0 38 55 1 36 52 1 37 54 0 39 57 0 37 54 0 0 56 0 38 55 1 37 54 0 39 57 0 40 58 1 38 55 1 39 57 0 41 60 0 39 57 0 0 59 0 40 58 1 39 57 0 41 60 0 42 61 1 40 58 1 41 60 0 43 63 0 41 60 0 0 62 0 42 61 1 41 60 0 43 63 0 44 64 1 42 61 1 43 63 0 45 66 0 43 63 0 0 65 0 44 64 1 43 63 0 45 66 0 46 67 1 44 64 1 45 66 0 1 1 0 47 69 0 0 68 0 48 70 1 47 69 0 1 1 0 3 3 1 48 70 1 1 1 0 47 72 0 45 66 0 0 71 0 46 67 1 45 66 0 47 72 0 48 70 1 46 73 1 47 69 0</p>
                </polylist>
            </mesh>
        </geometry>
        <geometry id="mesh1">
            <mesh>
                <source id="points1">
                    <float_array id="pointarray1" count="39">-2 -517.9300284385681 0 0 0 0 5799.5 -187.2200894355774 0 5799.5 187.2200894355774 0 8451.5 -187.2200894355774 0 8451.5 187.2200894355774 0 2 -517.9300284385681 0 -5799.5 -187.2200894355774 0 -5799.5 187.2200894355774 0 2 517.9300284385681 0 -8451.5 -187.2200894355774 0 -8451.5 187.2200894355774 0 -2 517.9300284385681 0</float_array>
                    <technique_common>
                        <accessor count="13" source="#pointarray1" stride="3">
                            <param name="X" type="float"/>
                            <param name="Y" type="float"/>
                            <param name="Z" type="float"/>
                        </accessor>
                    </technique_common>
                </source>
                <source id="uvs1">
                    <float_array id="uvarray1" count="26">1.100341796875 -1 1.012451171875 0 1.5186767578125 -1 1.5186767578125 1 2.02490234375 -1 2.02490234375 1 0.924560546875 -1 0.5062255859375 -1 0.5062255859375 1 0.924560546875 1 0 -1 0 1 1.100341796875 1</float_array>
                    <technique_common>
                        <accessor count="1" source="#uvarray1" stride="2">
                            <param name="S" type="float"/>
                            <param name="T" type="float"/>
                        </accessor>
                    </technique_common>
                </source>
                <vertices id="vertices1">
                    <input semantic="POSITION" source="#points1"/>
                </vertices>
                <polylist count="10" material="Material1">
                    <input offset="0" semantic="VERTEX" source="#vertices1"/>
                    <input offset="1" semantic="TEXCOORD" source="#uvs1" set="0"/>
                    <vcount>3 3 3 3 3 3 3 3 3 3</vcount>
                    <p>2 2 1 1 0 0 3 3 1 1 2 2 4 4 3 3 2 2 5 5 3 3 4 4 1 1 7 7 6 6 8 8 7 7 1 1 9 9 8 8 1 1 8 8 10 10 7 7 11 11 10 10 8 8 12 12 1 1 3 3</p>
                </polylist>
            </mesh>
        </geometry>
    </library_geometries>
    <library_controllers>
        <controller id="controller0">
            <skin source="#mesh0">
                <bind_shape_matrix>1 0 0 0 0 1 0 0 0 0 1 0 0 0 0 1</bind_shape_matrix>
                <source id="joints0">
                    <Name_array id="JointArr0" count="4">jointnode-1 jointnode0 jointnode1 jointnode2</Name_array>
                    <technique_common>
                        <accessor source="#JointArr0" count="4">
                            <param name="JOINT" type="Name" />
                        </accessor>
                    </technique_common>
                </source>
                <source id="matrices0">
                    <float_array id="MatArr0" count="64">1 0 0 0 0 1 0 0 0 0 1 0 0 0 0 1 1 0 0 0 0 1 0 0 0 0 1 0 0 0 0 1 1 0 0 0 0 1 0 0 0 0 1 0 0 0 0 1 1 0 0 0 0 1.4635181556960193 0 0 0 0 1 0 0 0 0 1</float_array>
                    <technique_common>
                        <accessor source="#MatArr0" count="4" stride="16">
                            <param type="float4x4" />
                        </accessor>
                    </technique_common>
                </source>
                <source id="weights0">
                    <float_array id="WeightArr0" count="1">1</float_array>
                    <technique_common>
                        <accessor source="#WeightArr0" count="1">
                            <param type="float" />
                        </accessor>
                    </technique_common>
                </source>
                <joints>
                    <input semantic="JOINT" source="#joints0" />
                    <input semantic="INV_BIND_MATRIX" source="#matrices0" />
                </joints>
                <vertex_weights count="49">
                    <input semantic="JOINT" offset="0" source="#joints0" />
                    <input semantic="WEIGHT" offset="1" source="#weights0" />
                    <vcount>1 1 1 1 1 1 1 1 1 1 1 1 1 1 1 1 1 1 1 1 1 1 1 1 1 1 1 1 1 1 1 1 1 1 1 1 1 1 1 1 1 1 1 1 1 1 1 1 1</vcount>
                    <v>2 0 2 0 2 0 2 0 2 0 2 0 2 0 2 0 2 0 2 0 2 0 2 0 2 0 2 0 2 0 2 0 2 0 2 0 2 0 2 0 2 0 2 0 2 0 2 0 2 0 2 0 2 0 2 0 2 0 2 0 2 0 2 0 2 0 2 0 2 0 2 0 2 0 2 0 2 0 2 0 2 0 2 0 2 0 2 0 2 0 2 0 2 0 2 0 2 0</v>
                </vertex_weights>
            </skin>
        </controller>
        <controller id="controller1">
            <skin source="#mesh1">
                <bind_shape_matrix>1 0 0 0 0 1 0 0 0 0 1 0 0 0 0 1</bind_shape_matrix>
                <source id="joints1">
                    <Name_array id="JointArr1" count="4">jointnode-1 jointnode0 jointnode1 jointnode2</Name_array>
                    <technique_common>
                        <accessor source="#JointArr1" count="4">
                            <param name="JOINT" type="Name" />
                        </accessor>
                    </technique_common>
                </source>
                <source id="matrices1">
                    <float_array id="MatArr1" count="64">1 0 0 0 0 1 0 0 0 0 1 0 0 0 0 1 1 0 0 0 0 1 0 0 0 0 1 0 0 0 0 1 1 0 0 0 0 1 0 0 0 0 1 0 0 0 0 1 1 0 0 0 0 1.4635181556960193 0 0 0 0 1 0 0 0 0 1</float_array>
                    <technique_common>
                        <accessor source="#MatArr1" count="4" stride="16">
                            <param type="float4x4" />
                        </accessor>
                    </technique_common>
                </source>
                <source id="weights1">
                    <float_array id="WeightArr1" count="1">1</float_array>
                    <technique_common>
                        <accessor source="#WeightArr1" count="1">
                            <param type="float" />
                        </accessor>
                    </technique_common>
                </source>
                <joints>
                    <input semantic="JOINT" source="#joints1" />
                    <input semantic="INV_BIND_MATRIX" source="#matrices1" />
                </joints>
                <vertex_weights count="13">
                    <input semantic="JOINT" offset="0" source="#joints1" />
                    <input semantic="WEIGHT" offset="1" source="#weights1" />
                    <vcount>1 1 1 1 1 1 1 1 1 1 1 1 1</vcount>
                    <v>3 0 3 0 3 0 3 0 3 0 3 0 3 0 3 0 3 0 3 0 3 0 3 0 3 0</v>
                </vertex_weights>
            </skin>
        </controller>
    </library_controllers>
    <library_visual_scenes>
        <visual_scene id="VisualSceneNode">
            <node id="node0" name="m0" type="NODE">
                <instance_controller url="#controller0">
                    <skeleton>#jointnode-1</skeleton>
                    <bind_material>
                        <technique_common>
                            <instance_material symbol="Material1" target="#mat1">
                                <bind_vertex_input semantic="UVSET0" input_semantic="TEXCOORD" input_set="0"></bind_vertex_input>
                            </instance_material>
                        </technique_common>
                    </bind_material>
                </instance_controller>
            </node>
            <node id="node1" name="m1" type="NODE">
                <instance_controller url="#controller1">
                    <skeleton>#jointnode-1</skeleton>
                    <bind_material>
                        <technique_common>
                            <instance_material symbol="Material1" target="#mat0">
                                <bind_vertex_input semantic="UVSET0" input_semantic="TEXCOORD" input_set="0"></bind_vertex_input>
                            </instance_material>
                        </technique_common>
                    </bind_material>
                </instance_controller>
            </node>
            <node id="jointnode-1" name="root" sid="jointnode-1" type="JOINT">
                <node id="jointnode0" name="PowerStarHalo" sid="jointnode0" type="JOINT">
                    <node id="jointnode1" name="Glow" sid="jointnode1" type="JOINT">
                    </node>
                    <node id="jointnode2" name="LineGlow" sid="jointnode2" type="JOINT">
                        <scale>1 0.6832849979400635 1</scale>
                    </node>
                </node>
            </node>
        </visual_scene>
    </library_visual_scenes>
    <scene>
        <instance_visual_scene url="#VisualSceneNode"></instance_visual_scene>
    </scene>
</COLLADA>
